# AST/ASF file generated using VICON BodyLanguage
# -----------------------------------------------
:version 1.10
:name VICON
:units
  mass 1.0
  length 0.45
  angle deg
:documentation
   .ast/.asf automatically generated from VICON data using
   VICON BodyBuilder and BodyLanguage model FoxedUp or BRILLIANT.MOD
:root
   order TX TY TZ RX RY RZ
   axis XYZ
   position 0 0 0  
   orientation 0 0 0 
:bonedata
  begin
     id 1 
     name lhipjoint
     direction 0.543289 -0.788407 0.288535 
     length 2.57127 
     axis 0 0 0  XYZ
  end
  begin
     id 2 
     name lfemur
     direction 0.34202 -0.939693 0  
     length 8.47298  
     axis 0 0 20  XYZ
    dof rx ry rz
    limits (-160.0 20.0)
           (-70.0 70.0)
           (-60.0 70.0)
  end
  begin
     id 3 
     name ltibia
     direction 0.34202 -0.939693 0   
     length 8.13367   
     axis 0 0 20   XYZ
    dof rx
    limits (-10.0 170.0)
  end
  begin
     id 4 
     name lfoot
     direction 0.114037 -0.313314 0.942778   
     length 2.67113   
     axis -90 7.62852e-016 20   XYZ
    dof rx rz
    limits (-45.0 90.0)
           (-70.0 20.0)
  end
  begin
     id 5 
     name ltoes
     direction 1.536e-011 -4.21847e-011 1   
     length 1.32217   
     axis -90 7.62852e-016 20   XYZ
    dof rx
    limits (-90.0 20.0)
  end
  begin
     id 6 
     name rhipjoint
     direction -0.571293 -0.770752 0.282074   
     length 2.63017  
     axis 0 0 0  XYZ 
  end
  begin
     id 7 
     name rfemur
     direction -0.34202 -0.939693 0   
     length 8.60885   
     axis 0 0 -20   XYZ
    dof rx ry rz
    limits (-160.0 20.0)
           (-70.0 70.0)
           (-70.0 60.0)
  end
  begin
     id 8 
     name rtibia
     direction -0.34202 -0.939693 0   
     length 8.07673   
     axis 0 0 -20   XYZ
    dof rx
    limits (-10.0 170.0)
 end
 begin
     id 9 
     name rfoot
     direction -0.121336 -0.333368 0.934956   
     length 2.81602  
     axis -90 -7.62852e-016 -20   XYZ
    dof rx rz
    limits (-45.0 90.0)
           (-20.0 70.0)
  end
  begin
     id 10 
     name rtoes
     direction -1.53491e-011 -4.21808e-011 1   
     length 1.38905   
     axis -90 -7.62852e-016 -20   XYZ
    dof rx
    limits (-90.0 20.0)
  end
  begin
     id 11 
     name lowerback
     direction 0.0136776 0.999869 -0.00861835   
     length 2.14087   
     axis 0 0 0   XYZ
    dof rx ry rz
    limits (-20.0 45.0)
           (-30.0 30.0)
           (-30.0 30.0)
  end
  begin
     id 12 
     name upperback
     direction -0.00789158 0.999804 0.0181308   
     length 2.14151   
     axis 0 0 0   XYZ
    dof rx ry rz
    limits (-20.0 45.0)
           (-30.0 30.0)
           (-30.0 30.0)
  end
  begin
     id 13 
     name thorax
     direction -0.0135231 0.999666 0.0220247   
     length 2.13644   
     axis 0 0 0   XYZ
    dof rx ry rz
    limits (-20.0 45.0)
           (-30.0 30.0)
           (-30.0 30.0)
  end
  begin
     id 14 
     name lowerneck
     direction -0.0392259 0.997317 0.0618018   
     length 1.65045   
     axis 0 0 0   XYZ
    dof rx ry rz
    limits (-20.0 45.0)
           (-30.0 30.0)
           (-30.0 30.0)
  end
  begin
     id 15 
     name upperneck
     direction 0.0765547 0.994276 -0.0745319   
     length 1.66045   
     axis 0 0 0   XYZ
    dof rx ry rz
    limits (-20.0 45.0)
           (-30.0 30.0)
           (-30.0 30.0)
  end
  begin
     id 16
     name head
     direction 0.0241564 0.999031 -0.036785  
     length 1.66594  
     axis 0 0 0   XYZ
    dof rx ry rz
    limits (-20.0 45.0)
           (-30.0 30.0)
           (-30.0 30.0)
  end
  begin
     id 17 
     name lclavicle
     direction 0.967398 0.249018 0.0461573  
     length 3.75176  
     axis 0 0 0   XYZ
    dof ry rz
    limits (-20.0 10.0)
           (0.0 20.0)
  end
  begin
     id 18 
     name lhumerus
     direction 1 -4.48963e-011 -3.05005e-027   
     length 5.93342   
     axis 180 -30 -90   XYZ
    dof rx ry rz
    limits (-60.0 90.0)
           (-90.0 90.0)
           (-90.0 90.0)
  end
  begin
     id 19
     name lradius
     direction 1 -4.48957e-011 1.07006e-026   
     length 3.94763   
     axis 180 -30 -90   XYZ
    dof rx
    limits (-10.0 170.0)
  end
  begin
     id 20
     name lwrist
     direction 1 -4.48978e-011 1.92422e-026   
     length 1.97382   
     axis -1.18182e-014 90 90   XYZ
    dof ry
    limits (-180.0 0.0)
 end
  begin
     id 21 
     name lhand
     direction 1 -4.48931e-011 3.84844e-026   
     length 0.560187   
     axis -2.45563e-014 90 90   XYZ
    dof rx rz
    limits (-90.0 90.0)
           (-45.0 45.0)
  end
  begin
     id 22 
     name lfingers
     direction 1 -4.48952e-011 7.69687e-026   
     length 0.451637   
     axis -4.91126e-014 90 90   XYZ
    dof rx
    limits (0.0 90.0)
  end
  begin
     id 23
     name lthumb
     direction 0.707107 -6.34901e-011 0.707107   
     length 0.648463   
     axis -90 45 2.85299e-015   XYZ
    dof rx rz
    limits (-45.0 45.0)
           (-45.0 45.0)
  end
  begin
     id 24 
     name rclavicle
     direction -0.965946 0.258716 0.00371831   
     length 3.63667  
     axis 0 0 0   XYZ 
    dof ry rz
    limits (-10.0 20.0)
           (-20.0 0.0)
  end
  begin
     id 25 
     name rhumerus
     direction -1 -4.48966e-011 -1.78361e-028  
     length 6.28647   
     axis 180 30 90   XYZ
    dof rx ry rz
    limits (-90.0 60.0)
           (-90.0 90.0)
           (-90.0 90.0)
  end
  begin
     id 26 
     name rradius
     direction -1 -4.48961e-011 1.05248e-026   
     length 3.81645   
     axis 180 30 90   XYZ
    dof rx
    limits (-10.0 170.0)
  end
  begin
     id 27 
     name rwrist
     direction -1 -4.48979e-011 1.92422e-026   
     length 1.90822   
     axis -1.18182e-014 -90 -90   XYZ
    dof ry
    limits (-180.0 0.0)
  end
  begin
     id 28
     name rhand
     direction -1 -4.48937e-011 3.84844e-026   
     length 0.646185   
     axis -2.45563e-014 -90 -90   XYZ
    dof rx rz
    limits (-90.0 90.0)
           (-45.0 45.0)
  end
  begin
     id 29
     name rfingers
     direction -1 -4.48953e-011 7.69687e-026   
     length 0.520971   
     axis -4.91126e-014 -90 -90   XYZ
    dof rx
    limits (0.0 90.0)
  end
  begin
     id 30
     name rthumb
     direction -0.707107 -6.3494e-011 0.707107   
     length 0.748013   
     axis -90 -45 -2.85299e-015   XYZ
    dof rx rz
    limits (-45.0 45.0)
           (-45.0 45.0)
  end
:hierarchy
  begin
    root lhipjoint rhipjoint lowerback
    lhipjoint lfemur
    lfemur ltibia
    ltibia lfoot
    lfoot ltoes
    rhipjoint rfemur
    rfemur rtibia
    rtibia rfoot
    rfoot rtoes
    lowerback upperback
    upperback thorax
    thorax lowerneck lclavicle rclavicle
    lowerneck upperneck
    upperneck head
    lclavicle lhumerus
    lhumerus lradius
    lradius lwrist
    lwrist lhand lthumb
    lhand lfingers
    rclavicle rhumerus
    rhumerus rradius
    rradius rwrist
    rwrist rhand rthumb
    rhand rfingers
  end

#!OML:ASF H:\HAZMAT1\Patient Classification 1\Patient 3\Session 1\dancer.ASF
:FULLY-SPECIFIED
:DEGREES
60
upperback 7.446790 -9.316860 2.517700
rfoot -11.745300 -24.623400
lradius 18.452999
lthumb 7.643160 46.442902
rradius 15.688600
lwrist -6.776560
rhand -17.436399 -26.118200
rhumerus -14.233900 35.395802 -44.296799
lowerneck 0.186502 0.091149 -6.147210
lhand -18.649799 16.601000
ltibia 61.861301
head 5.875160 -0.643343 1.317230
rwrist 31.728901
lfingers 7.125020
rtoes 13.295400
lowerback 8.054610 -7.006970 2.236170
rfingers 7.125020
lclavicle 0.000000 0.000000
upperneck 19.505899 -0.218793 0.996899
rfemur -80.745300 -15.849000 47.040401
thorax 3.366090 -4.670380 1.828430
rclavicle 0.000000 0.000000
rtibia 45.234699
lfoot -21.473200 -3.130530
lhumerus 8.896550 27.865801 74.747704
rthumb 8.814220 -55.914101
root -15.717500 18.442699 13.931700 -136.042007 -119.360001 175.313995
ltoes -4.114340
lfemur -56.234299 10.936500 -38.384102
61
upperback 7.105080 -8.965680 3.454180
rfoot -10.762200 -15.008500
lradius 11.172600
lthumb 0.804313 59.579300
rradius 10.824000
lwrist -50.388901
rhand -14.919800 -28.238400
rhumerus -59.364399 13.201000 -50.724201
lowerneck -1.049900 0.979025 -1.325650
lhand -25.732300 29.601101
ltibia 34.409000
head 7.092410 -0.020055 -0.777120
rwrist 43.666302
lfingers 7.125020
rtoes -8.884420
lowerback 4.366470 -6.597050 7.013700
rfingers 7.125020
lclavicle 0.000000 -0.000000
upperneck 22.632999 1.270370 -3.231060
rfemur -66.106903 -7.343270 17.220301
thorax 4.511020 -4.287760 -0.202014
rclavicle 0.000000 -0.000000
rtibia 36.427399
lfoot -19.110800 8.779630
lhumerus -31.406500 51.715302 33.702801
rthumb 11.242100 -57.917099
root -14.490600 19.425900 12.974200 -128.778000 -110.389999 167.660004
ltoes 6.918510
lfemur -46.402699 -2.114110 -31.074200
62
upperback 6.131510 -8.087140 4.705290
rfoot -19.799700 -44.382702
lradius 9.372300
lthumb 2.430550 67.166496
rradius 11.825200
lwrist -55.304100
rhand -11.764300 -28.515600
rhumerus -61.126900 4.991180 -72.474297
lowerneck -1.069330 2.294160 -1.113540
lhand -24.048500 37.200600
ltibia 35.473400
head 8.552920 0.497038 -0.992195
rwrist 32.563301
lfingers 7.125020
rtoes 25.346399
lowerback 2.790480 -5.779560 8.950430
rfingers 7.125020
lclavicle 0.000000 -0.000000
upperneck 26.841499 2.926470 -3.960690
rfemur -31.490299 5.437740 14.789600
thorax 4.358940 -3.841190 -0.091613
rclavicle 0.000000 -0.000000
rtibia 34.203999
lfoot -16.617800 18.626301
lhumerus -67.457199 51.257599 6.662920
rthumb 14.284200 -58.004299
root -13.465000 19.959700 12.363800 -112.635002 -108.098000 145.932007
ltoes 6.383610
lfemur -46.671600 -3.111660 -22.630699
63
upperback 4.085290 -5.193560 2.153210
rfoot -2.568390 -13.749200
lradius 4.493490
lthumb -1.227850 76.049301
rradius 14.119000
lwrist -37.957901
rhand -9.557870 -25.283400
rhumerus -31.606800 44.878399 -102.249001
lowerneck -0.526185 2.708580 0.469382
lhand -27.836300 46.073002
ltibia 38.104801
head 8.473070 0.793651 -0.849185
rwrist 21.882900
lfingers 7.125020
rtoes -18.926300
lowerback -0.844290 -3.735460 1.918190
rfingers 7.125020
lclavicle -0.000000 0.000000
upperneck 26.885900 3.060400 -2.732760
rfemur -25.429300 -4.336250 36.557499
thorax 4.724390 -2.576980 0.896244
rclavicle -0.000000 0.000000
rtibia 30.183599
lfoot -9.248050 18.147301
lhumerus -21.740999 53.805302 67.003700
rthumb 16.409401 -54.609299
root -12.347000 20.224100 12.020600 -93.649002 -101.772003 120.933998
ltoes 2.763760
lfemur -45.432598 -5.644760 -18.242001
